{"asset":{"version":"2.0","generator":"Unity 2021.3.15f1 glTFast 6.7.1"},"nodes":[{"name":"Chemi-IT-O001","mesh":0,"translation":[0.0535666458,0.0855509043,-0.1121196],"rotation":[2.18556941E-08,0,0,1]}],"buffers":[{"uri":"Chemi-IT-O001.bin","byteLength":11250960}],"bufferViews":[{"buffer":0,"byteLength":3551616},{"buffer":0,"byteLength":7699344,"byteOffset":3551616,"byteStride":48}],"accessors":[{"bufferView":1,"componentType":5126,"count":160403,"type":"VEC3","max":[0.134352446,0.0975509,0.0801195949],"min":[-0.134352446,-0.0975509,-0.0801195949]},{"bufferView":1,"componentType":5126,"count":160403,"type":"VEC3","byteOffset":12},{"bufferView":1,"componentType":5126,"count":160403,"type":"VEC4","byteOffset":24},{"bufferView":1,"componentType":5126,"count":160403,"type":"VEC2","byteOffset":40},{"bufferView":0,"componentType":5125,"count":887904,"type":"SCALAR"}],"images":[{"name":"Chemi-IT-O001-normal.png","uri":"Chemi-IT-O001-normal.png","mimeType":"image/png"},{"name":"Chemi-IT-O001-albedo.png","uri":"Chemi-IT-O001-albedo.png","mimeType":"image/png"},{"name":"Chemi-IT-O001-ao.png","uri":"Chemi-IT-O001-ao.png","mimeType":"image/png"}],"materials":[{"name":"Chemi-IT-O001","pbrMetallicRoughness":{"metallicFactor":0,"baseColorTexture":{"index":1}},"normalTexture":{"index":0},"occlusionTexture":{"index":2}}],"meshes":[{"name":"Objekt1-high-high4464k-mitTeller-c2-296k-RGB","primitives":[{"attributes":{"POSITION":0,"NORMAL":1,"TANGENT":2,"TEXCOORD_0":3},"indices":4,"material":0}]}],"samplers":[{"wrapS":33071,"wrapT":33071}],"scene":0,"scenes":[{"name":"Chemi-IT-O001","nodes":[0]}],"textures":[{"source":0,"sampler":0},{"source":1,"sampler":0},{"source":2,"sampler":0}]}